<svg width="151" height="44" viewBox="0 0 151 44" fill="none" xmlns="http://www.w3.org/2000/svg">
<g clip-path="url(#clip0_438_382)">
<path d="M55.8368 40.5959H57.3231V43.0495C57.1398 43.1226 56.9491 43.176 56.7545 43.2087C56.497 43.2526 56.236 43.2732 55.9748 43.2702C55.5888 43.2758 55.2057 43.2029 54.8487 43.0557C54.5149 42.9136 54.2166 42.6989 53.9756 42.4272C53.7169 42.1314 53.5232 41.7845 53.407 41.4089C53.2679 40.9624 53.2006 40.4965 53.2077 40.0288C53.1947 39.5118 53.2742 38.9966 53.4425 38.5077C53.5746 38.1294 53.7866 37.7842 54.0641 37.4957C54.3153 37.2417 54.6225 37.0504 54.9609 36.9369C55.3069 36.8214 55.6693 36.7634 56.034 36.7651C56.3327 36.7644 56.6302 36.8015 56.9197 36.8755C57.2091 36.9511 57.4895 37.0581 57.7558 37.1947L57.9649 36.4963C57.6717 36.3342 57.3553 36.2183 57.027 36.1526C56.6559 36.0832 56.279 36.0503 55.9016 36.0542C55.4128 36.0492 54.9275 36.1366 54.471 36.3119C54.0417 36.4777 53.6534 36.7351 53.3331 37.0662C52.9972 37.4228 52.7413 37.8474 52.5827 38.3114C52.3942 38.8639 52.303 39.445 52.313 40.0288C52.3017 40.6103 52.399 41.1888 52.6001 41.7343C52.7732 42.1962 53.0385 42.6178 53.3798 42.9733C53.7042 43.3063 54.096 43.5656 54.5289 43.7339C54.9777 43.9078 55.4552 43.9953 55.9364 43.9916C56.3557 43.9987 56.7744 43.9596 57.1851 43.875C57.5081 43.8029 57.824 43.7024 58.1293 43.5747V39.9059H55.8298L55.8368 40.5959Z" fill="#34404B"/>
<path d="M66.0041 37.0438C65.713 36.7167 65.3496 36.4624 64.9429 36.3014C64.5228 36.1359 64.0751 36.0525 63.6238 36.0556C63.1674 36.0514 62.7148 36.1391 62.2928 36.3133C61.8835 36.4842 61.517 36.744 61.2197 37.0738C60.8998 37.4351 60.6546 37.8565 60.4985 38.3135C60.3135 38.8626 60.2244 39.4396 60.2351 40.019C60.2239 40.6079 60.311 41.1945 60.493 41.7546C60.6428 42.2105 60.8821 42.6318 61.1967 42.9936C61.4886 43.3212 61.8517 43.5771 62.258 43.7416C63.1078 44.079 64.0543 44.0768 64.9024 43.7353C65.3149 43.5663 65.6844 43.3069 65.9839 42.9761C66.3048 42.6134 66.55 42.19 66.7051 41.7309C66.8898 41.1798 66.9789 40.601 66.9685 40.0197C66.9797 39.4306 66.8926 38.8438 66.7107 38.2835C66.5599 37.8272 66.3197 37.4057 66.0041 37.0438ZM65.8689 41.4669C65.7603 41.8372 65.5812 42.183 65.3414 42.4851C65.1337 42.7434 64.8686 42.9493 64.5673 43.0865C64.27 43.2182 63.9481 43.2851 63.6231 43.2827C63.2943 43.2843 62.9687 43.2175 62.667 43.0865C62.3598 42.951 62.0887 42.745 61.8754 42.4851C61.6317 42.1838 61.4486 41.838 61.3361 41.4669C61.1945 40.9979 61.1273 40.5096 61.1368 40.0197C61.1282 39.534 61.1935 39.0498 61.3305 38.5838C61.4393 38.2135 61.6184 37.8677 61.858 37.5655C62.0658 37.3075 62.3309 37.1018 62.6322 36.9649C62.9295 36.8332 63.2513 36.7663 63.5764 36.7686C63.9046 36.767 64.2297 36.8316 64.5324 36.9586C64.8377 37.0887 65.1087 37.2881 65.324 37.5411C65.57 37.8386 65.7534 38.1828 65.8633 38.5531C66.127 39.5061 66.129 40.5128 65.8689 41.4669Z" fill="#34404B"/>
<path d="M72.9695 40.2768C73.3637 40.0191 73.6607 39.6369 73.8133 39.1907C73.9022 38.9322 73.9458 38.6602 73.9423 38.3869C73.9455 38.0796 73.8939 37.7742 73.7897 37.4852C73.6939 37.2205 73.542 36.9799 73.3444 36.7798C73.1359 36.5754 72.8858 36.4184 72.6113 36.3196C72.2858 36.2038 71.9421 36.1477 71.5968 36.154H69.3216V43.8841H70.107V40.7307H71.5968L73.4259 43.8841H74.3875L72.3821 40.5715C72.5885 40.4962 72.7857 40.3973 72.9695 40.2768ZM71.2337 40.019H70.1076V36.8657H71.3271C71.7897 36.8326 72.2491 36.9653 72.6232 37.2401C72.7801 37.3926 72.901 37.5784 72.9771 37.7838C73.0531 37.9893 73.0825 38.2091 73.0629 38.4274C73.0696 38.6738 73.022 38.9187 72.9235 39.1446C72.8353 39.3385 72.7028 39.5088 72.5368 39.6419C72.3649 39.7766 72.1674 39.8748 71.9563 39.9303C71.7207 39.9934 71.4776 40.0242 71.2337 40.0218V40.019Z" fill="#34404B"/>
<path d="M79.5015 40.5959H80.9906V43.0495C80.8072 43.1226 80.6166 43.176 80.422 43.2087C80.1644 43.2526 79.9035 43.2732 79.6422 43.2702C79.2565 43.2758 78.8736 43.2029 78.5169 43.0557C78.1827 42.9137 77.8843 42.699 77.6431 42.4272C77.3845 42.1314 77.1908 41.7845 77.0744 41.4089C76.9354 40.9624 76.8681 40.4965 76.8752 40.0288C76.8622 39.5118 76.9417 38.9966 77.11 38.5077C77.242 38.1294 77.4541 37.7842 77.7315 37.4957C77.9828 37.2417 78.29 37.0504 78.6284 36.9369C78.9743 36.8214 79.3368 36.7634 79.7014 36.7651C80.0001 36.7644 80.2977 36.8015 80.5871 36.8755C80.8766 36.9512 81.1569 37.0582 81.4233 37.1947L81.6323 36.4963C81.3391 36.3342 81.0228 36.2183 80.6944 36.1526C80.3234 36.0832 79.9465 36.0503 79.5691 36.0542C79.0803 36.0492 78.595 36.1366 78.1385 36.3119C77.7094 36.4778 77.3214 36.7351 77.0013 37.0662C76.6652 37.4227 76.4093 37.8474 76.2508 38.3114C76.0623 38.8639 75.971 39.445 75.9811 40.0288C75.9698 40.6103 76.0672 41.1888 76.2682 41.7343C76.4415 42.1961 76.7068 42.6177 77.048 42.9733C77.3723 43.3063 77.7642 43.5656 78.197 43.7339C78.6456 43.9078 79.1229 43.9952 79.6039 43.9916C80.0231 43.9987 80.4419 43.9596 80.8526 43.875C81.1755 43.8029 81.4915 43.7024 81.7968 43.5747V39.9059H79.4973L79.5015 40.5959Z" fill="#34404B"/>
<path d="M85.1422 40.2523H88.3323V39.5288H85.1422V36.879H88.6368V36.1554H84.2977V43.8841H88.6716V43.1605H85.1415L85.1422 40.2523Z" fill="#34404B"/>
<path d="M96.2468 37.0438C95.9557 36.7167 95.5922 36.4624 95.1855 36.3014C94.7655 36.1359 94.3177 36.0525 93.8664 36.0556C93.41 36.0516 92.9575 36.1392 92.5355 36.3133C92.1261 36.4843 91.7597 36.744 91.4624 37.0738C91.1424 37.4351 90.8973 37.8565 90.7412 38.3135C90.5558 38.8625 90.4665 39.4395 90.4771 40.019C90.4658 40.6079 90.553 41.1945 90.7349 41.7546C90.8847 42.2105 91.124 42.6318 91.4387 42.9936C91.7305 43.3212 92.0936 43.5771 92.4999 43.7416C93.3497 44.079 94.2962 44.0768 95.1444 43.7353C95.556 43.5656 95.9246 43.3057 96.2231 42.9747C96.544 42.612 96.7892 42.1886 96.9443 41.7295C97.1292 41.1784 97.2186 40.5997 97.2083 40.0184C97.2197 39.4292 97.1326 38.8424 96.9505 38.2821C96.8005 37.8265 96.5613 37.4055 96.2468 37.0438ZM96.1122 41.4669C96.0034 41.8373 95.824 42.1831 95.5841 42.4851C95.3766 42.7434 95.1117 42.9493 94.8106 43.0865C94.5133 43.218 94.1914 43.2849 93.8664 43.2827C93.5378 43.2842 93.2125 43.2174 92.9111 43.0865C92.6038 42.951 92.3327 42.745 92.1195 42.4851C91.8758 42.1838 91.6926 41.838 91.5801 41.4669C91.4387 40.9979 91.3714 40.5096 91.3809 40.0197C91.3722 39.534 91.4376 39.0498 91.5746 38.5838C91.6836 38.2135 91.8629 37.8677 92.1028 37.5655C92.3105 37.3075 92.5757 37.1019 92.8769 36.9649C93.1742 36.8331 93.4961 36.7662 93.8211 36.7686C94.1493 36.767 94.4744 36.8316 94.7772 36.9586C95.0824 37.0888 95.3534 37.2881 95.5687 37.5411C95.8146 37.8386 95.9981 38.1828 96.1081 38.5531C96.3718 39.5061 96.3737 40.5128 96.1137 41.4669H96.1122Z" fill="#34404B"/>
<path d="M104.247 40.9298C104.25 41.2522 104.213 41.5737 104.135 41.8866C104.071 42.1518 103.956 42.4019 103.795 42.6227C103.641 42.8289 103.437 42.9933 103.203 43.1011C102.93 43.2217 102.634 43.2801 102.336 43.2723C102.058 43.2969 101.778 43.2584 101.517 43.1596C101.256 43.0608 101.021 42.9043 100.828 42.7017C100.459 42.1333 100.292 41.457 100.353 40.7817V36.1568H99.5085V40.8313C99.4307 41.7028 99.7006 42.5697 100.259 43.2422C100.536 43.5024 100.863 43.7035 101.22 43.8332C101.576 43.9629 101.956 44.0184 102.335 43.9965C102.708 44.0196 103.081 43.9644 103.432 43.8345C103.782 43.7046 104.101 43.5029 104.37 43.2422C104.903 42.5816 105.162 41.7398 105.091 40.8928V36.1575H104.247V40.9298Z" fill="#34404B"/>
<path d="M110.378 39.7278L109.592 39.4582C109.217 39.3505 108.869 39.1644 108.571 38.9121C108.46 38.8011 108.373 38.6678 108.316 38.5208C108.26 38.3739 108.235 38.2166 108.243 38.0593C108.234 37.8776 108.269 37.6964 108.344 37.531C108.419 37.3655 108.534 37.2207 108.677 37.1088C109.011 36.8699 109.416 36.7511 109.826 36.7714C110.104 36.7709 110.382 36.8038 110.653 36.8692C110.966 36.9517 111.27 37.0668 111.559 37.2128L111.768 36.4893C111.46 36.3386 111.135 36.2273 110.8 36.1582C110.466 36.0917 110.127 36.0587 109.786 36.0597C109.137 36.0153 108.496 36.2192 107.992 36.6303C107.784 36.8264 107.62 37.0652 107.513 37.3304C107.406 37.5956 107.357 37.881 107.37 38.1669C107.359 38.3963 107.394 38.6257 107.472 38.8415C107.551 39.0574 107.671 39.2554 107.827 39.424C108.162 39.7568 108.572 40.003 109.023 40.1413L109.785 40.399C110.033 40.4791 110.273 40.584 110.5 40.7119C110.666 40.8048 110.816 40.9225 110.946 41.0611C111.051 41.1755 111.129 41.3117 111.175 41.4599C111.219 41.6091 111.24 41.7639 111.239 41.9194C111.253 42.1157 111.217 42.3121 111.134 42.4903C111.05 42.6685 110.923 42.8225 110.764 42.9377C110.411 43.1689 109.995 43.2845 109.574 43.2688C109.236 43.2705 108.9 43.2313 108.571 43.1521C108.235 43.0667 107.91 42.941 107.604 42.7778L107.381 43.5013C107.737 43.6748 108.113 43.8027 108.501 43.882C108.87 43.9553 109.245 43.9923 109.621 43.9923C109.963 43.9962 110.303 43.9443 110.629 43.8387C110.916 43.7466 111.183 43.6009 111.415 43.4091C111.634 43.2255 111.808 42.9949 111.925 42.7345C112.05 42.4506 112.112 42.143 112.107 41.8328C112.112 41.3823 111.964 40.9435 111.689 40.5876C111.344 40.1802 110.888 39.8816 110.378 39.7278Z" fill="#34404B"/>
<path d="M121.859 39.7306L121.073 39.461C120.698 39.3534 120.35 39.1673 120.053 38.9149C119.941 38.8039 119.854 38.6706 119.798 38.5237C119.741 38.3767 119.716 38.2194 119.725 38.0621C119.715 37.8804 119.75 37.6992 119.825 37.5337C119.901 37.3683 120.015 37.2235 120.158 37.1116C120.492 36.8728 120.897 36.7539 121.307 36.7742C121.586 36.7738 121.863 36.8066 122.134 36.872C122.447 36.9545 122.75 37.0696 123.039 37.2156L123.248 36.4921C122.941 36.3415 122.616 36.2303 122.281 36.161C121.947 36.0945 121.607 36.0616 121.267 36.0626C120.618 36.018 119.977 36.222 119.472 36.6331C119.264 36.8292 119.101 37.068 118.994 37.3332C118.887 37.5984 118.838 37.8838 118.851 38.1697C118.84 38.3991 118.875 38.6285 118.953 38.8444C119.032 39.0602 119.152 39.2582 119.308 39.4268C119.642 39.7597 120.053 40.0059 120.504 40.1441L121.266 40.4018C121.514 40.482 121.754 40.5868 121.981 40.7147C122.146 40.8076 122.296 40.9254 122.426 41.0639C122.531 41.1782 122.609 41.3144 122.655 41.4627C122.699 41.6121 122.721 41.7672 122.72 41.9229C122.733 42.1192 122.697 42.3157 122.614 42.4939C122.531 42.6721 122.403 42.826 122.244 42.9412C121.891 43.1724 121.476 43.288 121.054 43.2723C120.716 43.274 120.38 43.2348 120.051 43.1556C119.715 43.0704 119.39 42.9447 119.084 42.7813L118.861 43.5048C119.217 43.6784 119.593 43.8063 119.981 43.8855C120.35 43.9588 120.725 43.9958 121.101 43.9958C121.443 43.9998 121.784 43.9482 122.109 43.8429C122.396 43.7508 122.663 43.605 122.895 43.4133C123.114 43.2297 123.288 42.9991 123.405 42.7387C123.53 42.4548 123.592 42.1472 123.587 41.837C123.592 41.3865 123.445 40.9477 123.169 40.5917C122.824 40.1841 122.369 39.8851 121.859 39.7306Z" fill="#34404B"/>
<path d="M129.898 36.7428C129.666 36.5455 129.396 36.3973 129.106 36.307C128.783 36.2062 128.447 36.1565 128.109 36.1596H125.94V43.889H126.783V40.7601H127.992C128.343 40.7634 128.693 40.7137 129.029 40.6127C129.329 40.5235 129.608 40.3753 129.85 40.1769C130.084 39.98 130.27 39.7323 130.395 39.4526C130.534 39.1337 130.602 38.7885 130.594 38.4406C130.601 38.1025 130.54 37.7664 130.412 37.4531C130.297 37.1798 130.121 36.9368 129.898 36.7428ZM129.549 39.227C129.454 39.4237 129.309 39.5912 129.127 39.7117C128.927 39.8383 128.704 39.9238 128.47 39.9632C128.192 40.0141 127.909 40.0386 127.626 40.0365H126.781V36.8713H127.884C128.108 36.871 128.333 36.8956 128.552 36.9446C128.761 36.9894 128.959 37.0771 129.132 37.2023C129.306 37.3307 129.446 37.4982 129.543 37.6912C129.656 37.9284 129.71 38.1893 129.701 38.4518C129.712 38.7186 129.66 38.9842 129.551 39.2277L129.549 39.227Z" fill="#34404B"/>
<path d="M133.996 36.1603L131.088 43.8896H131.967L132.779 41.6813H135.945L136.754 43.8896H137.645L134.784 36.1603H133.996ZM135.685 40.9696H133.011L133.621 39.313C133.691 39.1332 133.755 38.9596 133.814 38.7919C133.873 38.6243 133.932 38.4546 133.99 38.2828C134.048 38.111 134.109 37.931 134.172 37.7429C134.235 37.5548 134.297 37.3544 134.359 37.1416H134.383C134.516 37.5751 134.643 37.9739 134.764 38.338C134.885 38.7021 134.997 39.028 135.099 39.3157L135.685 40.9696Z" fill="#34404B"/>
<path d="M140.633 37.546C140.877 37.289 141.176 37.0919 141.507 36.9698C141.843 36.8463 142.199 36.7839 142.557 36.7854C142.851 36.7816 143.144 36.8147 143.43 36.8839C143.705 36.9573 143.97 37.0601 144.222 37.1905L144.421 36.5032C144.154 36.3608 143.87 36.2518 143.577 36.1785C143.2 36.0931 142.814 36.054 142.428 36.0618C141.946 36.0567 141.468 36.1462 141.02 36.3251C140.595 36.4979 140.213 36.7618 139.9 37.0983C139.571 37.4599 139.319 37.886 139.162 38.3498C138.978 38.8928 138.889 39.4633 138.898 40.0365C138.888 40.6172 138.982 41.1949 139.176 41.742C139.341 42.2014 139.596 42.6228 139.927 42.981C140.239 43.3131 140.619 43.5727 141.042 43.7416C141.476 43.9151 141.94 44.0026 142.408 43.9993C142.788 44.0056 143.167 43.9707 143.54 43.8952C143.835 43.8306 144.12 43.7294 144.39 43.5942L144.191 42.8825C143.959 42.9978 143.718 43.0914 143.469 43.1619C143.157 43.2427 142.836 43.2799 142.513 43.2723C142.172 43.273 141.833 43.2151 141.511 43.1011C141.184 42.985 140.887 42.7964 140.643 42.5494C140.371 42.2661 140.163 41.9271 140.033 41.5556C139.728 40.5779 139.728 39.53 140.033 38.5524C140.163 38.1794 140.367 37.8369 140.633 37.546Z" fill="#34404B"/>
<path d="M147.471 40.2586H150.661V39.5351H147.471V36.8846H150.965V36.161H146.626V43.8903H151V43.1668H147.47L147.471 40.2586Z" fill="#34404B"/>
<path d="M71.2233 18.7384C72.0568 18.724 72.8903 18.7728 73.7165 18.8844V17.2347C72.8902 17.3452 72.0568 17.3937 71.2233 17.38H63.7917V14.6869H69.5286C70.354 14.6749 71.1792 14.7236 71.9974 14.8329V13.1832C71.1792 13.2924 70.354 13.3412 69.5286 13.3292H63.7917V12.8927C63.7824 12.1701 63.8311 11.448 63.9373 10.7332H62.0733C62.1751 11.4402 62.2238 12.1539 62.219 12.8682V13.3292H56.8214C55.996 13.3412 55.1709 13.2924 54.3526 13.1832V14.8329C55.171 14.7253 55.996 14.6765 56.8214 14.6869H62.219V17.38H55.2229C54.3894 17.3921 53.5562 17.3435 52.7297 17.2347V18.8844C53.5564 18.7785 54.3895 18.7298 55.2229 18.7384H71.2233Z" fill="#34404B"/>
<path d="M62.2183 28.2969V30.4822C62.2229 31.3101 62.1663 32.1372 62.0489 32.9567H63.961C63.8384 32.1378 63.7818 31.3103 63.7917 30.4822V28.299H71.6825C72.5078 28.2876 73.3329 28.3362 74.1513 28.4442V26.7946C73.3409 26.9028 72.5237 26.9514 71.7062 26.9399H63.7924V24.2223H69.7467C70.5802 24.2097 71.4135 24.2585 72.2399 24.3683V22.7187C71.4134 22.8269 70.5802 22.8757 69.7467 22.8646H66.9392C67.6656 21.7682 68.305 20.6162 68.8513 19.4194L67.3747 18.9822C66.8663 20.3491 66.2003 21.6519 65.3902 22.8639H56.9664C56.1329 22.8742 55.2997 22.8254 54.4731 22.718V24.3676C55.3 24.2633 56.133 24.2145 56.9664 24.2216H62.219V26.9392H54.7874C53.962 26.9506 53.1369 26.902 52.3186 26.7939V28.4436C53.1372 28.3379 53.9621 28.2893 54.7874 28.2983L62.2183 28.2969Z" fill="#34404B"/>
<path d="M59.1446 22.7417L60.4031 22.0384C59.9538 20.917 59.3511 19.8638 58.6122 18.9088L57.3775 19.5374C58.0892 20.5328 58.6823 21.6082 59.1446 22.7417Z" fill="#34404B"/>
<path d="M99.5183 32.7856C99.4127 31.9569 99.364 31.122 99.3727 30.2867V24.4898C99.3574 23.7122 99.3897 22.9343 99.4695 22.1606C98.6897 22.2443 97.9053 22.2767 97.1212 22.2577H88.9162C87.8515 22.2577 87.101 22.2333 86.5198 22.1879C86.5983 22.9617 86.6306 23.7394 86.6167 24.5171V30.2441C86.625 31.0633 86.5765 31.8822 86.4718 32.6948H88.0452V31.5773H97.9212V32.7856H99.5183ZM93.4908 23.5176H97.9205V26.1381H93.4908V23.5176ZM92.1111 30.3104H88.0445V27.3771H92.1111V30.3104ZM92.1111 26.1374H88.0445V23.5176H92.1111V26.1374ZM93.4908 30.3104V27.3771H97.9205V30.3104H93.4908Z" fill="#34404B"/>
<path d="M97.5331 13.1825C98.3012 13.1807 99.0689 13.2213 99.8326 13.3041V11.6782C99.0368 11.7648 98.2367 11.8053 97.4362 11.7997H88.5044C87.704 11.8013 86.9041 11.7607 86.108 11.6782V13.3041C86.8718 13.2226 87.6394 13.1821 88.4075 13.1825H97.5331Z" fill="#34404B"/>
<path d="M83.1033 22.3052C83.913 23.1284 84.6585 24.0126 85.3332 24.9501L86.2773 23.7369C85.6345 22.9978 84.921 22.3234 84.1472 21.7234C83.6873 21.3596 83.6392 21.3114 83.2762 21.0194C84.3302 19.6948 85.2163 18.2443 85.9143 16.7011C86.0515 16.3732 86.2146 16.0567 86.4021 15.7548L85.6997 14.8329C85.3239 14.8963 84.9425 14.9197 84.5618 14.9027H80.3014C79.6949 14.9074 79.0887 14.875 78.4862 14.8056V16.3882C79.1052 16.3209 79.7276 16.2885 80.3502 16.2912H84.5618C83.8851 17.8307 82.9971 19.268 81.9236 20.5613C80.6926 22.0671 79.2397 23.376 77.6152 24.443C77.9923 24.8246 78.2886 25.2785 78.4862 25.7777C79.6157 24.9161 80.6686 23.958 81.6331 22.9142V30.2867C81.6331 31.2086 81.5843 32.0816 81.5118 32.8338H83.2302C83.1354 31.9882 83.0949 31.1374 83.1089 30.2867L83.1033 22.3052Z" fill="#34404B"/>
<path d="M83.9778 13.8621C83.3228 12.6615 82.5354 11.5384 81.6303 10.5139L80.4923 11.1928C81.3719 12.25 82.1121 13.4161 82.695 14.6625L83.9778 13.8621Z" fill="#34404B"/>
<path d="M98.2111 14.8811C97.4708 14.9655 96.7262 15.006 95.9812 15.0026H89.8813C89.1209 15.0195 88.3604 14.9789 87.6062 14.8811C87.6801 15.5496 87.7125 16.2221 87.703 16.8946V18.4716C87.7138 19.136 87.6815 19.8005 87.6062 20.4607C88.3702 20.3844 89.138 20.352 89.9057 20.3636H95.9088C96.6765 20.3489 97.4445 20.3814 98.2083 20.4607C98.1303 19.7843 98.0979 19.1035 98.1114 18.4227V16.8722C98.1006 16.207 98.1339 15.5419 98.2111 14.8811ZM96.662 19.1267H89.1364V16.2632H96.662V19.1267Z" fill="#34404B"/>
<path d="M115.928 30.7721V24.6826H120.865C121.683 24.6735 122.5 24.7221 123.31 24.8279V23.1517C122.476 23.2598 121.634 23.3086 120.793 23.2976H109.513C108.736 23.3266 107.957 23.2777 107.19 23.1517V24.8279C107.982 24.7027 108.784 24.6541 109.586 24.6826H114.355V30.7721H107.432C106.534 30.7861 105.636 30.7376 104.745 30.6268V32.3491C105.635 32.2253 106.533 32.1685 107.432 32.1794H123.117C123.992 32.1708 124.866 32.2275 125.732 32.3491V30.6268C124.865 30.7372 123.991 30.7858 123.117 30.7721H115.928Z" fill="#34404B"/>
<path d="M105.277 18.3745H106.898V15.0026H123.622V18.2048H125.243C125.152 17.6435 125.111 17.075 125.122 16.5063V15.1716C125.112 14.6112 125.144 14.0508 125.219 13.4954C124.407 13.5851 123.591 13.6256 122.774 13.6169H116.166C115.611 12.5099 114.972 11.4474 114.254 10.4392L112.995 11.0454C113.595 11.8488 114.114 12.7102 114.544 13.6169H107.744C106.928 13.6256 106.111 13.5851 105.299 13.4954C105.373 14.051 105.405 14.6112 105.396 15.1716V16.4574C105.407 17.0986 105.367 17.7397 105.277 18.3745Z" fill="#34404B"/>
<path d="M106.149 22.6202C107.709 21.9509 109.174 21.078 110.506 20.0242C111.585 19.1682 112.539 18.1634 113.338 17.0399L111.982 16.4811C111.236 17.4724 110.347 18.3473 109.344 19.0771C108.013 20.0036 106.564 20.7462 105.036 21.2848C105.521 21.6207 105.905 22.0822 106.149 22.6202Z" fill="#34404B"/>
<path d="M117.211 17.4289C119.652 18.9886 121.959 20.7496 124.109 22.6935L125.294 21.553C123.059 19.6771 120.679 17.9816 118.177 16.4825L117.211 17.4289Z" fill="#34404B"/>
<path d="M131.248 32.713H133.039C132.92 31.8123 132.872 30.9037 132.894 29.9954V18.5931H137.324C138.291 18.5931 139.115 18.6176 139.769 18.663C139.721 18.0561 139.699 17.3772 139.699 16.4064V13.4011C139.699 12.5037 139.723 11.7759 139.769 11.0964C138.948 11.1768 138.124 11.2092 137.3 11.1935H133.839C132.99 11.2095 132.142 11.177 131.297 11.0964C131.373 11.9837 131.406 12.8744 131.394 13.765V29.9954C131.413 30.9036 131.364 31.812 131.248 32.713ZM132.894 12.3822H138.315V14.323H132.894V12.3822ZM132.894 15.4629H138.315V17.4282H132.894V15.4629Z" fill="#34404B"/>
<path d="M150.879 30.36V13.765C150.868 12.8739 150.909 11.9828 151.001 11.0964C150.156 11.177 149.307 11.2095 148.459 11.1935H144.465C143.64 11.2098 142.816 11.1774 141.996 11.0964C142.044 11.8241 142.065 12.5526 142.065 13.4011V16.4099C142.065 17.3074 142.041 18.0351 141.996 18.6665C142.649 18.6176 143.424 18.5966 144.441 18.5966H149.403V30.2664C149.403 30.8489 149.234 30.946 148.241 30.946C147.342 30.9207 146.445 30.8478 145.554 30.7274C145.774 31.221 145.921 31.744 145.99 32.2799C146.667 32.3288 147.805 32.3498 148.386 32.3498C150.395 32.3491 150.879 31.9615 150.879 30.36ZM143.449 12.3822H149.404V14.323H143.449V12.3822ZM143.449 17.4289V15.4636H149.404V17.4289H143.449Z" fill="#34404B"/>
<path d="M145.674 29.4625C145.626 28.834 145.605 27.977 145.605 27.0551V23.2215C145.605 22.2514 145.629 21.3777 145.674 20.6982C144.878 20.7754 144.078 20.8078 143.278 20.7952H138.873C138.064 20.8077 137.256 20.7753 136.452 20.6982C136.501 21.4015 136.521 22.3743 136.521 23.2215V27.3219C136.532 28.0449 136.499 28.7678 136.425 29.487C137.14 29.412 137.86 29.3796 138.579 29.3899H143.203C144.222 29.3885 144.997 29.413 145.674 29.4625ZM137.928 21.9588H144.222V24.3641H137.928V21.9588ZM137.928 28.1265V25.5738H144.222V28.1265H137.928Z" fill="#34404B"/>
<path d="M42.2642 28.9974L32.3937 21.099L31.2321 22.5566L40.7381 30.0737L41.0454 30.3153C41.2857 30.5046 41.4801 30.7461 41.6138 31.0215C41.7475 31.297 41.8172 31.5992 41.8175 31.9056V40.0896C41.8175 40.3341 41.7693 40.5762 41.6757 40.8019C41.5821 41.0277 41.4449 41.2327 41.2721 41.4052C41.0992 41.5777 40.894 41.7143 40.6684 41.8071C40.4427 41.8999 40.2009 41.9471 39.957 41.946L3.86177 41.7923C3.37188 41.7903 2.90275 41.5938 2.55706 41.2459C2.21137 40.898 2.01729 40.4269 2.01729 39.9359V23.4143C2.0173 22.8614 2.14049 22.3156 2.37786 21.8166C2.61523 21.3175 2.9608 20.8779 3.38933 20.5298L20.7568 6.43238C21.0877 6.16375 21.5007 6.01751 21.9265 6.01827C22.3523 6.01904 22.7648 6.16675 23.0947 6.43657L41.8956 21.8191L43.0676 20.402L25.1238 5.48184C25.1238 5.48184 22.5783 2.27543 18.7228 5.48184L3.18377 18.4067L1.53928 19.7749C0.988721 20.2961 0.566073 20.9381 0.304459 21.6504C0.042845 22.3628 -0.0506281 23.1262 0.0313602 23.8808V40.9403C0.0644637 41.7265 0.390649 42.4717 0.945446 43.0285C1.50024 43.5854 2.24328 43.9133 3.02768 43.9476L40.2845 43.9895C40.7188 44.0372 41.1583 43.9947 41.5755 43.8647C41.9927 43.7348 42.3787 43.52 42.7095 43.2339C43.0403 42.9479 43.3088 42.5966 43.4982 42.202C43.6876 41.8073 43.7939 41.3778 43.8104 40.9403V32.2262C43.8368 31.6021 43.7096 30.9812 43.4399 30.4181C43.1703 29.855 42.7665 29.3671 42.2642 28.9974Z" fill="#EE751B"/>
<path d="M36.792 10.9986H38.5125V0H36.792V4.63606H32.8501V6.36045H36.792V10.9986Z" fill="#EE751B"/>
<path d="M43.8229 4.63606H40.3263V6.36254H43.8229V4.63606Z" fill="#EE751B"/>
</g>
<defs>
<clipPath id="clip0_438_382">
<rect width="151" height="44" fill="white"/>
</clipPath>
</defs>
</svg>
