<?xml version="1.0" encoding="UTF-8"?>
<!DOCTYPE svg PUBLIC "-//W3C//DTD SVG 1.1//EN" "http://www.w3.org/Graphics/SVG/1.1/DTD/svg11.dtd">
<svg xmlns="http://www.w3.org/2000/svg" version="1.1" width="8000px" height="4500px" style="shape-rendering:geometricPrecision; text-rendering:geometricPrecision; image-rendering:optimizeQuality; fill-rule:evenodd; clip-rule:evenodd" xmlns:xlink="http://www.w3.org/1999/xlink">
<g><path style="opacity:0.998" fill="#2b5eab" d="M 1926.5,2394.5 C 1926.5,2293.83 1926.5,2193.17 1926.5,2092.5C 1926.5,1785.17 1926.5,1477.83 1926.5,1170.5C 2025.17,1170.5 2123.83,1170.5 2222.5,1170.5C 2222.33,1466.5 2222.5,1762.5 2223,2058.5C 2533.01,1956.66 2843.18,1855.33 3153.5,1754.5C 3153.83,1855.5 3153.5,1956.5 3152.5,2057.5C 2842.76,2167.64 2533.09,2277.97 2223.5,2388.5C 2222.5,2697.5 2222.17,3006.5 2222.5,3315.5C 2123.83,3315.5 2025.17,3315.5 1926.5,3315.5C 1926.5,3008.5 1926.5,2701.5 1926.5,2394.5 Z"/></g>
<g><path style="opacity:0.995" fill="#070403" d="M 3344.5,1371.5 C 3395.67,1370.17 3447,1370.17 3498.5,1371.5C 3523.98,1491.09 3549.15,1610.75 3574,1730.5C 3606.5,1610.48 3639,1490.48 3671.5,1370.5C 3719.17,1370.5 3766.83,1370.5 3814.5,1370.5C 3846.07,1490.13 3878.57,1609.46 3912,1728.5C 3937.28,1609.24 3962.12,1489.91 3986.5,1370.5C 4037.83,1370.5 4089.17,1370.5 4140.5,1370.5C 4093.32,1600.55 4045.82,1830.55 3998,2060.5C 3946.57,2061.83 3895.07,2061.83 3843.5,2060.5C 3809.51,1936.22 3775.68,1811.88 3742,1687.5C 3708.01,1811.78 3674.18,1936.12 3640.5,2060.5C 3589.5,2061.5 3538.5,2061.83 3487.5,2061.5C 3440.32,1831.28 3392.66,1601.28 3344.5,1371.5 Z"/></g>
<g><path style="opacity:0.993" fill="#070403" d="M 4697.5,1370.5 C 4834.83,1370.5 4972.17,1370.5 5109.5,1370.5C 5109.5,1404.83 5109.5,1439.17 5109.5,1473.5C 5057.5,1473.5 5005.5,1473.5 4953.5,1473.5C 4953.5,1600.5 4953.5,1727.5 4953.5,1854.5C 4919.83,1854.5 4886.17,1854.5 4852.5,1854.5C 4852.5,1727.5 4852.5,1600.5 4852.5,1473.5C 4800.83,1473.5 4749.17,1473.5 4697.5,1473.5C 4697.5,1439.17 4697.5,1404.83 4697.5,1370.5 Z"/></g>
<g><path style="opacity:0.992" fill="#070403" d="M 5264.5,1370.5 C 5297.07,1370.17 5329.57,1370.5 5362,1371.5C 5427.89,1532.28 5494.06,1692.95 5560.5,1853.5C 5523.5,1854.67 5486.5,1854.83 5449.5,1854C 5434.83,1818.33 5420.17,1782.67 5405.5,1747C 5343.5,1746.5 5281.5,1746.33 5219.5,1746.5C 5205.52,1782.6 5190.86,1818.43 5175.5,1854C 5138.17,1854.67 5100.83,1854.67 5063.5,1854C 5130.64,1692.88 5197.64,1531.71 5264.5,1370.5 Z M 5312.5,1523.5 C 5328.91,1562.88 5345.24,1602.38 5361.5,1642C 5329.16,1642.83 5296.83,1642.67 5264.5,1641.5C 5281.07,1602.37 5297.07,1563.04 5312.5,1523.5 Z"/></g>
<g><path style="opacity:0.993" fill="#070403" d="M 5615.5,1370.5 C 5649.5,1370.5 5683.5,1370.5 5717.5,1370.5C 5717.5,1532.17 5717.5,1693.83 5717.5,1855.5C 5683.5,1855.5 5649.5,1855.5 5615.5,1855.5C 5615.5,1693.83 5615.5,1532.17 5615.5,1370.5 Z"/></g>
<g><path style="opacity:0.992" fill="#070403" d="M 5794.5,1370.5 C 5828.17,1370.5 5861.83,1370.5 5895.5,1370.5C 5914.17,1460.19 5933,1549.85 5952,1639.5C 5976.27,1549.91 6000.77,1460.41 6025.5,1371C 6057.17,1370.17 6088.84,1370.33 6120.5,1371.5C 6145,1460.84 6169.5,1550.17 6194,1639.5C 6212.67,1550.17 6231.33,1460.83 6250,1371.5C 6283.76,1370.5 6317.59,1370.17 6351.5,1370.5C 6318.4,1531.16 6285.23,1691.83 6252,1852.5C 6234.72,1853.83 6217.22,1854.49 6199.5,1854.5C 6181.78,1854.49 6164.28,1853.83 6147,1852.5C 6122.2,1760.44 6097.2,1668.44 6072,1576.5C 6047.16,1668.88 6022.16,1761.21 5997,1853.5C 5962.67,1854.83 5928.33,1854.83 5894,1853.5C 5860.38,1692.58 5827.22,1531.58 5794.5,1370.5 Z"/></g>
<g><path style="opacity:0.992" fill="#070403" d="M 6535.5,1370.5 C 6568.07,1370.17 6600.57,1370.5 6633,1371.5C 6699.26,1532.13 6765.43,1692.79 6831.5,1853.5C 6794.5,1854.83 6757.5,1854.83 6720.5,1853.5C 6705.93,1817.94 6691.26,1782.44 6676.5,1747C 6614.83,1746.33 6553.17,1746.33 6491.5,1747C 6476.5,1782.67 6461.5,1818.33 6446.5,1854C 6409.5,1854.5 6372.5,1854.67 6335.5,1854.5C 6401.61,1692.94 6468.28,1531.61 6535.5,1370.5 Z M 6583.5,1523.5 C 6599.81,1562.73 6616.14,1602.07 6632.5,1641.5C 6600.17,1642.67 6567.84,1642.83 6535.5,1642C 6551.93,1602.65 6567.93,1563.15 6583.5,1523.5 Z"/></g>
<g><path style="opacity:0.993" fill="#070403" d="M 6888.5,1370.5 C 6920.51,1370.17 6952.51,1370.5 6984.5,1371.5C 7048.86,1466.03 7113.03,1560.7 7177,1655.5C 7177.5,1560.5 7177.67,1465.5 7177.5,1370.5C 7210.5,1370.5 7243.5,1370.5 7276.5,1370.5C 7276.5,1531.83 7276.5,1693.17 7276.5,1854.5C 7247.49,1854.83 7218.49,1854.5 7189.5,1853.5C 7122.47,1757.64 7055.64,1661.64 6989,1565.5C 6988.5,1661.83 6988.33,1758.17 6988.5,1854.5C 6955.17,1854.5 6921.83,1854.5 6888.5,1854.5C 6888.5,1693.17 6888.5,1531.83 6888.5,1370.5 Z"/></g>
<g><path style="opacity:0.993" fill="#070403" d="M 151.5,1694.5 C 350.833,1694.5 550.167,1694.5 749.5,1694.5C 749.5,1748.83 749.5,1803.17 749.5,1857.5C 676.5,1857.5 603.5,1857.5 530.5,1857.5C 530.5,2036.5 530.5,2215.5 530.5,2394.5C 477.167,2394.5 423.833,2394.5 370.5,2394.5C 370.5,2215.5 370.5,2036.5 370.5,1857.5C 297.5,1857.5 224.5,1857.5 151.5,1857.5C 151.5,1803.17 151.5,1748.83 151.5,1694.5 Z"/></g>
<g><path style="opacity:0.994" fill="#fccf17" d="M 1302.5,2092.5 C 1302.5,2193.17 1302.5,2293.83 1302.5,2394.5C 1167.17,2394.5 1031.83,2394.5 896.5,2394.5C 896.5,2293.83 896.5,2193.17 896.5,2092.5C 1031.83,2092.5 1167.17,2092.5 1302.5,2092.5 Z"/></g>
<g><path style="opacity:0.996" fill="#c5ab06" d="M 1302.5,2092.5 C 1375.83,2092.5 1449.17,2092.5 1522.5,2092.5C 1522.5,2193.17 1522.5,2293.83 1522.5,2394.5C 1449.17,2394.5 1375.83,2394.5 1302.5,2394.5C 1302.5,2293.83 1302.5,2193.17 1302.5,2092.5 Z"/></g>
<g><path style="opacity:0.996" fill="#557ebe" d="M 1522.5,2092.5 C 1657.17,2092.5 1791.83,2092.5 1926.5,2092.5C 1926.5,2193.17 1926.5,2293.83 1926.5,2394.5C 1791.83,2394.5 1657.17,2394.5 1522.5,2394.5C 1522.5,2293.83 1522.5,2193.17 1522.5,2092.5 Z"/></g>
<g><path style="opacity:0.99" fill="#070403" d="M 6238.5,2094.5 C 6302.2,2091.34 6358.2,2110.18 6406.5,2151C 6420.71,2164.2 6433.05,2178.87 6443.5,2195C 6416.64,2213.36 6389.64,2231.53 6362.5,2249.5C 6332.65,2213.81 6294.31,2196.31 6247.5,2197C 6228.33,2197.05 6212.17,2203.88 6199,2217.5C 6192.39,2230.28 6194.55,2241.44 6205.5,2251C 6216.97,2258.23 6229.3,2263.56 6242.5,2267C 6275.37,2273.3 6307.7,2281.63 6339.5,2292C 6375.58,2303.95 6405.75,2324.45 6430,2353.5C 6459.97,2395.28 6466.64,2440.61 6450,2489.5C 6430.3,2536.79 6395.8,2567.62 6346.5,2582C 6300.32,2594.57 6253.99,2595.24 6207.5,2584C 6163.77,2571.23 6126.94,2547.73 6097,2513.5C 6089.1,2503.94 6081.6,2494.11 6074.5,2484C 6102.11,2463.73 6130.27,2444.23 6159,2425.5C 6170.46,2440.29 6183.29,2453.79 6197.5,2466C 6235.01,2491.94 6275.67,2498.27 6319.5,2485C 6346.45,2475.26 6358.95,2456.09 6357,2427.5C 6356.12,2422.86 6354.45,2418.53 6352,2414.5C 6344.9,2406.4 6336.4,2400.23 6326.5,2396C 6295.54,2384.34 6263.88,2375.01 6231.5,2368C 6203.89,2360.8 6177.56,2350.47 6152.5,2337C 6104.35,2306.17 6084.85,2262.34 6094,2205.5C 6102,2175.34 6118.16,2150.5 6142.5,2131C 6170.98,2109.6 6202.98,2097.43 6238.5,2094.5 Z"/></g>
<g><path style="opacity:0.995" fill="#070403" d="M 4738.5,2099.5 C 4818.5,2099.33 4898.5,2099.5 4978.5,2100C 5028.54,2105.75 5067.7,2129.25 5096,2170.5C 5115.15,2205.21 5121.49,2242.21 5115,2281.5C 5105.82,2338.33 5073.99,2375.83 5019.5,2394C 5006.05,2397.62 4992.39,2399.96 4978.5,2401C 4932.5,2401.5 4886.5,2401.67 4840.5,2401.5C 4840.5,2462.17 4840.5,2522.83 4840.5,2583.5C 4806.5,2583.5 4772.5,2583.5 4738.5,2583.5C 4738.5,2422.17 4738.5,2260.83 4738.5,2099.5 Z M 4840.5,2202.5 C 4881.83,2202.33 4923.17,2202.5 4964.5,2203C 4981.95,2203.31 4996.12,2210.14 5007,2223.5C 5014.51,2236.63 5016.51,2250.63 5013,2265.5C 5005.57,2284.24 4991.74,2294.74 4971.5,2297C 4927.83,2297.5 4884.17,2297.67 4840.5,2297.5C 4840.5,2265.83 4840.5,2234.17 4840.5,2202.5 Z"/></g>
<g><path style="opacity:0.988" fill="#070403" d="M 5207.5,2099.5 C 5242.17,2099.5 5276.83,2099.5 5311.5,2099.5C 5311.5,2226.17 5311.5,2352.83 5311.5,2479.5C 5397.5,2479.5 5483.5,2479.5 5569.5,2479.5C 5569.5,2514.17 5569.5,2548.83 5569.5,2583.5C 5448.83,2583.5 5328.17,2583.5 5207.5,2583.5C 5207.5,2422.17 5207.5,2260.83 5207.5,2099.5 Z"/></g>
<g><path style="opacity:0.994" fill="#070403" d="M 5618.5,2099.5 C 5652.5,2099.5 5686.5,2099.5 5720.5,2099.5C 5720.33,2199.17 5720.5,2298.83 5721,2398.5C 5724.29,2437.29 5743.45,2464.79 5778.5,2481C 5807.2,2490.29 5834.87,2487.95 5861.5,2474C 5888.07,2454.71 5902.57,2428.55 5905,2395.5C 5905.5,2296.83 5905.67,2198.17 5905.5,2099.5C 5939.17,2099.5 5972.83,2099.5 6006.5,2099.5C 6006.67,2202.5 6006.5,2305.5 6006,2408.5C 6000.92,2471.84 5973.09,2522.34 5922.5,2560C 5879.36,2587.47 5832.36,2597.47 5781.5,2590C 5709.01,2577.34 5659.17,2536.84 5632,2468.5C 5624.72,2448.45 5620.39,2427.79 5619,2406.5C 5618.5,2304.17 5618.33,2201.83 5618.5,2099.5 Z"/></g>
<g><path style="opacity:0.981" fill="#070403" d="M 6012.5,2840.5 C 6014.49,2866.48 6015.16,2892.81 6014.5,2919.5C 6028.83,2919.5 6043.17,2919.5 6057.5,2919.5C 6057.5,2932.5 6057.5,2945.5 6057.5,2958.5C 6043.17,2958.5 6028.83,2958.5 6014.5,2958.5C 6014.02,2994.89 6014.52,3031.23 6016,3067.5C 6017.5,3071 6020,3073.5 6023.5,3075C 6036.01,3076.46 6047.67,3073.96 6058.5,3067.5C 6058.16,3080.88 6056.66,3094.21 6054,3107.5C 6037.31,3115.42 6019.81,3117.92 6001.5,3115C 5982.66,3110.16 5972.5,3097.99 5971,3078.5C 5970.5,3038.5 5970.33,2998.5 5970.5,2958.5C 5961.17,2958.5 5951.83,2958.5 5942.5,2958.5C 5942.5,2945.5 5942.5,2932.5 5942.5,2919.5C 5951.83,2919.5 5961.17,2919.5 5970.5,2919.5C 5970.33,2900.16 5970.5,2880.83 5971,2861.5C 5985.1,2854.87 5998.93,2847.87 6012.5,2840.5 Z"/></g>
<g><path style="opacity:0.979" fill="#070403" d="M 6429.5,2840.5 C 6430.5,2866.66 6430.83,2892.99 6430.5,2919.5C 6445.17,2919.5 6459.83,2919.5 6474.5,2919.5C 6474.5,2932.5 6474.5,2945.5 6474.5,2958.5C 6459.83,2958.5 6445.17,2958.5 6430.5,2958.5C 6430.33,2992.17 6430.5,3025.83 6431,3059.5C 6431.21,3070.71 6436.88,3076.05 6448,3075.5C 6451.9,3075.48 6455.74,3074.98 6459.5,3074C 6465.27,3071.91 6470.94,3069.75 6476.5,3067.5C 6474.62,3080.81 6472.79,3094.15 6471,3107.5C 6450.73,3116.98 6429.9,3118.48 6408.5,3112C 6398.88,3106.7 6392.55,3098.7 6389.5,3088C 6388.11,3082.59 6387.28,3077.09 6387,3071.5C 6386.5,3033.83 6386.33,2996.17 6386.5,2958.5C 6377.17,2958.5 6367.83,2958.5 6358.5,2958.5C 6358.5,2945.5 6358.5,2932.5 6358.5,2919.5C 6367.83,2919.5 6377.17,2919.5 6386.5,2919.5C 6386.17,2900.16 6386.5,2880.82 6387.5,2861.5C 6401.59,2854.45 6415.59,2847.45 6429.5,2840.5 Z"/></g>
<g><path style="opacity:0.984" fill="#070403" d="M 6552.5,2840.5 C 6554.33,2871.82 6555.16,2903.48 6555,2935.5C 6571.67,2918.62 6591.83,2912.12 6615.5,2916C 6638.41,2919.35 6654.57,2931.52 6664,2952.5C 6667.15,2961.24 6669.15,2970.24 6670,2979.5C 6670.5,3023.5 6670.67,3067.5 6670.5,3111.5C 6655.83,3111.5 6641.17,3111.5 6626.5,3111.5C 6626.97,3069.47 6626.47,3027.47 6625,2985.5C 6621.65,2967.15 6610.65,2957.82 6592,2957.5C 6572.79,2957.09 6560.79,2966.09 6556,2984.5C 6554.53,3026.79 6554.03,3069.13 6554.5,3111.5C 6539.83,3111.5 6525.17,3111.5 6510.5,3111.5C 6510.17,3027.83 6510.5,2944.16 6511.5,2860.5C 6525.38,2854.06 6539.05,2847.39 6552.5,2840.5 Z"/></g>
<g><path style="opacity:0.98" fill="#070403" d="M 7669.5,2840.5 C 7670.5,2930.67 7670.83,3021 7670.5,3111.5C 7655.83,3111.5 7641.17,3111.5 7626.5,3111.5C 7626.33,3028.17 7626.5,2944.83 7627,2861.5C 7641.3,2854.6 7655.47,2847.6 7669.5,2840.5 Z"/></g>
<g><path style="opacity:0.98" fill="#070403" d="M 7872.5,2840.5 C 7874.5,2930.49 7875.16,3020.83 7874.5,3111.5C 7859.83,3111.5 7845.17,3111.5 7830.5,3111.5C 7830.67,3107.49 7830.5,3103.49 7830,3099.5C 7818.81,3111.34 7804.98,3117 7788.5,3116.5C 7756.23,3115.71 7733.39,3100.71 7720,3071.5C 7712.89,3053.69 7709.73,3035.19 7710.5,3016C 7709.1,2990.44 7715.26,2966.94 7729,2945.5C 7752.99,2915.84 7782.83,2908.01 7818.5,2922C 7822.92,2924.41 7826.75,2927.58 7830,2931.5C 7830.33,2907.83 7830.67,2884.17 7831,2860.5C 7845.09,2854.2 7858.93,2847.54 7872.5,2840.5 Z M 7790.5,2957.5 C 7807.03,2956.35 7820.2,2962.35 7830,2975.5C 7830.67,3002.17 7830.67,3028.83 7830,3055.5C 7816.72,3072.36 7799.89,3077.2 7779.5,3070C 7770.37,3065.26 7763.87,3058.09 7760,3048.5C 7754.78,3032.91 7753.11,3016.91 7755,3000.5C 7756.27,2985.78 7762.44,2973.62 7773.5,2964C 7778.88,2960.71 7784.55,2958.55 7790.5,2957.5 Z"/></g>
<g><path style="opacity:0.964" fill="#070403" d="M 5134.5,2841.5 C 5159.35,2841.85 5169.18,2854.18 5164,2878.5C 5156.9,2892.46 5145.73,2897.3 5130.5,2893C 5114.49,2884.31 5109.99,2871.47 5117,2854.5C 5121.05,2847.6 5126.88,2843.27 5134.5,2841.5 Z"/></g>
<g><path style="opacity:0.978" fill="#070403" d="M 6978.5,2848.5 C 6994.24,2847.86 7009.74,2848.53 7025,2850.5C 7036.46,2908.14 7047.8,2965.81 7059,3023.5C 7073.33,2965.19 7087.49,2906.86 7101.5,2848.5C 7114.5,2848.5 7127.5,2848.5 7140.5,2848.5C 7154.54,2906.33 7169.04,2964 7184,3021.5C 7195.36,2963.86 7206.53,2906.19 7217.5,2848.5C 7232.83,2848.5 7248.17,2848.5 7263.5,2848.5C 7245.04,2936.14 7226.7,3023.81 7208.5,3111.5C 7194.09,3112.14 7179.92,3111.47 7166,3109.5C 7150.51,3049.87 7135.18,2990.2 7120,2930.5C 7105.32,2990.89 7090.49,3051.22 7075.5,3111.5C 7061.5,3111.5 7047.5,3111.5 7033.5,3111.5C 7015.01,3023.87 6996.67,2936.2 6978.5,2848.5 Z"/></g>
<g><path style="opacity:0.985" fill="#070403" d="M 4724.5,2849.5 C 4788.5,2849.5 4852.5,2849.5 4916.5,2849.5C 4916.5,2864.17 4916.5,2878.83 4916.5,2893.5C 4891.83,2893.5 4867.17,2893.5 4842.5,2893.5C 4842.5,2966.17 4842.5,3038.83 4842.5,3111.5C 4827.5,3111.5 4812.5,3111.5 4797.5,3111.5C 4797.5,3038.83 4797.5,2966.17 4797.5,2893.5C 4773.17,2893.5 4748.83,2893.5 4724.5,2893.5C 4724.5,2878.83 4724.5,2864.17 4724.5,2849.5 Z"/></g>
<g><path style="opacity:0.98" fill="#070403" d="M 4976.5,2915.5 C 4987.84,2915.33 4999.17,2915.5 5010.5,2916C 5024.89,2917.46 5037.89,2922.46 5049.5,2931C 5060.39,2942.62 5066.55,2956.45 5068,2972.5C 5068.5,3018.83 5068.67,3065.17 5068.5,3111.5C 5054.17,3111.5 5039.83,3111.5 5025.5,3111.5C 5025.67,3107.15 5025.5,3102.82 5025,3098.5C 5006.22,3114.13 4984.72,3119.63 4960.5,3115C 4919.53,3105.28 4902.37,3079.45 4909,3037.5C 4914,3017.17 4926.17,3003 4945.5,2995C 4964.05,2988.49 4983.05,2986.82 5002.5,2990C 5010.41,2991.35 5017.91,2993.85 5025,2997.5C 5029.25,2969.43 5017.25,2955.09 4989,2954.5C 4975.6,2954.78 4962.76,2957.61 4950.5,2963C 4944.56,2966.47 4938.56,2969.63 4932.5,2972.5C 4928.57,2960.38 4924.24,2948.38 4919.5,2936.5C 4936.88,2924.93 4955.88,2917.93 4976.5,2915.5 Z M 4983.5,3026.5 C 4997.73,3025.99 5011.4,3028.49 5024.5,3034C 5025.65,3042.42 5025.82,3050.92 5025,3059.5C 5005.5,3077.67 4983.67,3081.17 4959.5,3070C 4947.97,3058.62 4947.63,3046.95 4958.5,3035C 4966.29,3030.24 4974.62,3027.4 4983.5,3026.5 Z"/></g>
<g><path style="opacity:0.977" fill="#070403" d="M 5528.5,2915.5 C 5539.51,2915.33 5550.51,2915.5 5561.5,2916C 5599.81,2920.32 5619.31,2941.82 5620,2980.5C 5620.5,3024.17 5620.67,3067.83 5620.5,3111.5C 5606.17,3111.5 5591.83,3111.5 5577.5,3111.5C 5577.67,3106.82 5577.5,3102.15 5577,3097.5C 5563.22,3110.6 5546.72,3116.93 5527.5,3116.5C 5473.59,3112.37 5451.76,3083.7 5462,3030.5C 5468.9,3012.6 5481.4,3000.44 5499.5,2994C 5517.16,2988.4 5535.16,2987.07 5553.5,2990C 5561.53,2991.4 5569.2,2993.9 5576.5,2997.5C 5581.11,2969.11 5569.11,2954.78 5540.5,2954.5C 5520.26,2954.91 5501.92,2960.91 5485.5,2972.5C 5484.91,2972.29 5484.41,2971.96 5484,2971.5C 5479.17,2959.66 5475.17,2947.66 5472,2935.5C 5489.34,2924.33 5508.18,2917.66 5528.5,2915.5 Z M 5535.5,3026.5 C 5549.79,3026.09 5563.46,3028.76 5576.5,3034.5C 5577.66,3042.48 5577.83,3050.48 5577,3058.5C 5557.49,3077.67 5535.33,3081.5 5510.5,3070C 5502.09,3061.48 5500.26,3051.65 5505,3040.5C 5508.11,3036.52 5511.94,3033.35 5516.5,3031C 5522.79,3028.68 5529.12,3027.18 5535.5,3026.5 Z"/></g>
<g><path style="opacity:0.981" fill="#070403" d="M 5751.5,2915.5 C 5803.01,2912.51 5829.51,2936.84 5831,2988.5C 5831.5,3029.5 5831.67,3070.5 5831.5,3111.5C 5816.83,3111.5 5802.17,3111.5 5787.5,3111.5C 5787.67,3074.5 5787.5,3037.5 5787,3000.5C 5785.22,2962.36 5766.38,2949.86 5730.5,2963C 5720.7,2971.1 5715.54,2981.6 5715,2994.5C 5714.5,3033.5 5714.33,3072.5 5714.5,3111.5C 5699.83,3111.5 5685.17,3111.5 5670.5,3111.5C 5670.5,3047.5 5670.5,2983.5 5670.5,2919.5C 5685.17,2919.5 5699.83,2919.5 5714.5,2919.5C 5714.33,2925.18 5714.5,2930.84 5715,2936.5C 5724.56,2924.97 5736.73,2917.97 5751.5,2915.5 Z"/></g>
<g><path style="opacity:0.979" fill="#070403" d="M 6154.5,2915.5 C 6209.28,2911.28 6242.11,2935.94 6253,2989.5C 6258.2,3019.35 6254.54,3048.01 6242,3075.5C 6225.17,3102.92 6200.5,3116.59 6168,3116.5C 6118.81,3113.98 6090.48,3088.32 6083,3039.5C 6079.83,3016.45 6081.49,2993.78 6088,2971.5C 6099.14,2939.51 6121.31,2920.84 6154.5,2915.5 Z M 6163.5,2957.5 C 6187.11,2957.27 6201.94,2968.6 6208,2991.5C 6212.67,3007.83 6212.67,3024.17 6208,3040.5C 6197.94,3069.44 6178.44,3078.94 6149.5,3069C 6139.27,3062.43 6132.44,3053.26 6129,3041.5C 6122.81,3019.03 6124.81,2997.36 6135,2976.5C 6142.04,2966.25 6151.54,2959.91 6163.5,2957.5 Z"/></g>
<g><path style="opacity:0.979" fill="#070403" d="M 6779.5,2915.5 C 6843.34,2912.5 6875.67,2943 6876.5,3007C 6876.35,3015.19 6875.85,3023.35 6875,3031.5C 6833.57,3032.5 6792.07,3032.83 6750.5,3032.5C 6752.78,3059.28 6767.28,3073.95 6794,3076.5C 6810.63,3076.6 6823.8,3069.93 6833.5,3056.5C 6842.99,3066.16 6852.32,3075.99 6861.5,3086C 6839.02,3110.94 6811.02,3120.61 6777.5,3115C 6747.57,3110.08 6726.74,3093.58 6715,3065.5C 6706.55,3041.46 6704.22,3016.79 6708,2991.5C 6714.33,2949.34 6738.16,2924.01 6779.5,2915.5 Z M 6787.5,2954.5 C 6814.86,2954.53 6829.86,2968.2 6832.5,2995.5C 6805.17,2995.5 6777.83,2995.5 6750.5,2995.5C 6752.05,2971.96 6764.38,2958.29 6787.5,2954.5 Z"/></g>
<g><path style="opacity:0.979" fill="#070403" d="M 7345.5,2915.5 C 7400.28,2911.28 7433.11,2935.94 7444,2989.5C 7449.22,3019.35 7445.55,3048.02 7433,3075.5C 7416.17,3102.92 7391.5,3116.59 7359,3116.5C 7309.81,3113.98 7281.48,3088.32 7274,3039.5C 7270.82,3016.45 7272.49,2993.78 7279,2971.5C 7290.14,2939.51 7312.31,2920.84 7345.5,2915.5 Z M 7354.5,2957.5 C 7378.11,2957.27 7392.94,2968.6 7399,2991.5C 7403.51,3007.82 7403.51,3024.16 7399,3040.5C 7388.94,3069.45 7369.44,3078.95 7340.5,3069C 7330.27,3062.43 7323.44,3053.26 7320,3041.5C 7313.86,3019.04 7315.86,2997.37 7326,2976.5C 7333.04,2966.25 7342.54,2959.91 7354.5,2957.5 Z"/></g>
<g><path style="opacity:0.981" fill="#070403" d="M 7555.5,2915.5 C 7569.38,2913.61 7582.38,2916.11 7594.5,2923C 7597.34,2924.67 7599.67,2926.84 7601.5,2929.5C 7599.54,2942.91 7597.2,2956.24 7594.5,2969.5C 7580.46,2959.33 7565.12,2956.83 7548.5,2962C 7534.62,2969.58 7527.78,2981.41 7528,2997.5C 7527.5,3035.5 7527.33,3073.5 7527.5,3111.5C 7512.83,3111.5 7498.17,3111.5 7483.5,3111.5C 7483.5,3047.5 7483.5,2983.5 7483.5,2919.5C 7498.17,2919.5 7512.83,2919.5 7527.5,2919.5C 7527.33,2925.18 7527.5,2930.84 7528,2936.5C 7534.2,2925.45 7543.37,2918.45 7555.5,2915.5 Z"/></g>
<g><path style="opacity:0.979" fill="#070403" d="M 5117.5,2919.5 C 5132.17,2919.5 5146.83,2919.5 5161.5,2919.5C 5161.5,2983.5 5161.5,3047.5 5161.5,3111.5C 5146.83,3111.5 5132.17,3111.5 5117.5,3111.5C 5117.5,3047.5 5117.5,2983.5 5117.5,2919.5 Z"/></g>
<g><path style="opacity:0.976" fill="#070403" d="M 5194.5,2919.5 C 5209.08,2919.18 5223.58,2919.51 5238,2920.5C 5247.72,2962.08 5257.05,3003.75 5266,3045.5C 5276.19,3003.41 5286.69,2961.41 5297.5,2919.5C 5311.17,2919.5 5324.83,2919.5 5338.5,2919.5C 5349,2960.84 5359.5,3002.17 5370,3043.5C 5379.18,3002.46 5388.51,2961.46 5398,2920.5C 5412.42,2919.51 5426.92,2919.18 5441.5,2919.5C 5424.5,2983.49 5407.5,3047.49 5390.5,3111.5C 5377.17,3111.5 5363.83,3111.5 5350.5,3111.5C 5339.51,3069.89 5328.68,3028.22 5318,2986.5C 5307.01,3028.13 5296.18,3069.79 5285.5,3111.5C 5272.17,3111.5 5258.83,3111.5 5245.5,3111.5C 5228.5,3047.5 5211.5,2983.5 5194.5,2919.5 Z"/></g>
</svg>
